<?xml version="1.0" encoding="UTF-8"?>
<svg width="512" height="512" viewBox="0 0 512 512" fill="none" xmlns="http://www.w3.org/2000/svg">
  <!-- 배경 원 -->
  <circle cx="256" cy="256" r="248" fill="#0F172A" stroke="#38BDF8" stroke-width="16"/>
  
  <!-- 빌딩 아이콘 -->
  <path d="M170 146H342V386H170V146Z" fill="#38BDF8" opacity="0.8"/>
  
  <!-- 창문들 -->
  <rect x="190" y="166" width="30" height="30" fill="#0F172A"/>
  <rect x="240" y="166" width="30" height="30" fill="#0F172A"/>
  <rect x="290" y="166" width="30" height="30" fill="#0F172A"/>
  
  <rect x="190" y="216" width="30" height="30" fill="#0F172A"/>
  <rect x="240" y="216" width="30" height="30" fill="#0F172A"/>
  <rect x="290" y="216" width="30" height="30" fill="#0F172A"/>
  
  <rect x="190" y="266" width="30" height="30" fill="#0F172A"/>
  <rect x="240" y="266" width="30" height="30" fill="#0F172A"/>
  <rect x="290" y="266" width="30" height="30" fill="#0F172A"/>
  
  <!-- 입구 -->
  <rect x="230" y="316" width="50" height="70" fill="#0F172A"/>
  
  <!-- 상승 그래프 -->
  <path d="M140 330L180 290L220 310L260 250L300 230L340 190L380 150" stroke="#10B981" stroke-width="8" stroke-linecap="round" stroke-linejoin="round"/>
  
  <!-- 달러 기호 -->
  <path d="M256 90C256 90 240 100 240 110C240 120 250 126 266 130C282 134 292 140 292 154C292 168 280 176 256 176C232 176 220 164 220 164" stroke="white" stroke-width="10" stroke-linecap="round"/>
  <line x1="256" y1="70" x2="256" y2="196" stroke="white" stroke-width="10" stroke-linecap="round"/>
</svg> 